# xmcd
#
# Track frame offsets:
#	150
#	16143
#	32666
#	49262
#	66324
#	85416
#	102869
#	120547
#	138004
#	156494
#	174048
#	191820
#	209519
#	228322
#	249782
#	265871
#	280106
#	301672
#	318293
#
# Disc length: 4491 seconds
#
# Revision: 0
# Processed by: cddbd v1.4PL0 Copyright (c) Steve Scherf et al.
# Submitted via: audiograbber 1.81.02
#
DISCID=f8118913
DTITLE=Curtis Mayfield - Move On Up (The Singles Anthology 1970-90) CD #2
DYEAR=1999
DGENRE=Funk
TTITLE0=Do Do Wap Is Strong In Here
TTITLE1=Your Are, You Are
TTITLE2=Do It All Night
TTITLE3=In Love, In Love, In Love
TTITLE4=No Goodbyes
TTITLE5=This Year, This Year
TTITLE6=Between You Baby And Me
TTITLE7=Love's Sweet Sensation
TTITLE8=Love Me, Love Me Now
TTITLE9=Tripping Out
TTITLE10=It's Alright
TTITLE11=She Don't Let Nobody (But Me)
TTITLE12=Toot An' Toot An' Toot
TTITLE13=Hey Baby (Give It All To Me)
TTITLE14=Baby It's You
TTITLE15=I Mo Git U Sucka
TTITLE16=Homeless
TTITLE17=Do Be Down
TTITLE18=Dirty Laundry
EXTD=
EXTT0=
EXTT1=
EXTT2=
EXTT3=
EXTT4=
EXTT5=
EXTT6=
EXTT7=
EXTT8=
EXTT9=
EXTT10=
EXTT11=
EXTT12=
EXTT13=
EXTT14=
EXTT15=
EXTT16=
EXTT17=
EXTT18=
PLAYORDER=
